<svg xmlns="http://www.w3.org/2000/svg" xmlns:xlink="http://www.w3.org/1999/xlink" width="40" zoomAndPan="magnify" viewBox="0 0 30 30.000001" height="40" preserveAspectRatio="xMidYMid meet" version="1.0"><defs><clipPath id="895ff81edf"><path d="M 0.484375 11 L 29.515625 11 L 29.515625 29.03125 L 0.484375 29.03125 Z M 0.484375 11 " clip-rule="nonzero"/></clipPath><clipPath id="e0e7a808a2"><path d="M 0.484375 0 L 29.515625 0 L 29.515625 10 L 0.484375 10 Z M 0.484375 0 " clip-rule="nonzero"/></clipPath></defs><g clip-path="url(#895ff81edf)"><path fill="#ffffff" d="M 7.984375 11.148438 L 0.488281 11.148438 L 0.488281 20.828125 C 0.488281 25.359375 4.160156 29.03125 8.691406 29.03125 L 21.316406 29.03125 C 25.847656 29.03125 29.519531 25.359375 29.519531 20.828125 L 29.519531 11.148438 L 22.023438 11.148438 C 22.511719 12.167969 22.789062 13.3125 22.789062 14.515625 C 22.789062 18.8125 19.300781 22.300781 15.003906 22.300781 C 10.707031 22.300781 7.21875 18.8125 7.21875 14.515625 C 7.21875 13.3125 7.492188 12.167969 7.984375 11.148438 Z M 7.984375 11.148438 " fill-opacity="1" fill-rule="evenodd"/></g><path fill="#c29f17" d="M 20.683594 14.515625 C 20.683594 14.890625 20.648438 15.257812 20.574219 15.625 C 20.5 15.988281 20.394531 16.34375 20.25 16.691406 C 20.109375 17.035156 19.933594 17.363281 19.726562 17.671875 C 19.519531 17.980469 19.285156 18.269531 19.019531 18.53125 C 18.757812 18.796875 18.46875 19.03125 18.160156 19.238281 C 17.847656 19.445312 17.519531 19.621094 17.175781 19.765625 C 16.832031 19.90625 16.476562 20.015625 16.109375 20.085938 C 15.746094 20.160156 15.375 20.195312 15.003906 20.195312 C 14.628906 20.195312 14.261719 20.160156 13.894531 20.085938 C 13.527344 20.015625 13.175781 19.90625 12.828125 19.765625 C 12.484375 19.621094 12.15625 19.445312 11.847656 19.238281 C 11.539062 19.03125 11.25 18.796875 10.988281 18.53125 C 10.722656 18.269531 10.488281 17.980469 10.28125 17.671875 C 10.074219 17.363281 9.898438 17.035156 9.753906 16.691406 C 9.613281 16.34375 9.503906 15.988281 9.433594 15.625 C 9.359375 15.257812 9.324219 14.890625 9.324219 14.515625 C 9.324219 14.144531 9.359375 13.773438 9.433594 13.40625 C 9.503906 13.042969 9.613281 12.6875 9.753906 12.34375 C 9.898438 11.996094 10.074219 11.671875 10.28125 11.359375 C 10.488281 11.050781 10.722656 10.761719 10.988281 10.5 C 11.25 10.234375 11.539062 10 11.847656 9.792969 C 12.15625 9.585938 12.484375 9.410156 12.828125 9.269531 C 13.175781 9.125 13.527344 9.019531 13.894531 8.945312 C 14.261719 8.871094 14.628906 8.835938 15.003906 8.835938 C 15.375 8.835938 15.746094 8.871094 16.109375 8.945312 C 16.476562 9.019531 16.832031 9.125 17.175781 9.269531 C 17.519531 9.410156 17.847656 9.585938 18.160156 9.792969 C 18.46875 10 18.757812 10.234375 19.019531 10.5 C 19.285156 10.761719 19.519531 11.050781 19.726562 11.359375 C 19.933594 11.671875 20.109375 11.996094 20.25 12.34375 C 20.394531 12.6875 20.5 13.042969 20.574219 13.40625 C 20.648438 13.773438 20.683594 14.144531 20.683594 14.515625 Z M 20.683594 14.515625 " fill-opacity="1" fill-rule="nonzero"/><g clip-path="url(#e0e7a808a2)"><path fill="#c29f17" d="M 0.488281 9.46875 L 9.082031 9.46875 C 10.507812 7.792969 12.632812 6.730469 15.003906 6.730469 C 17.375 6.730469 19.496094 7.792969 20.925781 9.46875 L 29.519531 9.46875 L 29.519531 8.203125 C 29.519531 3.671875 25.847656 0 21.316406 0 L 8.691406 0 C 4.160156 0 0.488281 3.671875 0.488281 8.203125 Z M 23.417969 4.417969 C 24.347656 4.417969 25.101562 5.171875 25.101562 6.101562 C 25.101562 7.03125 24.347656 7.785156 23.417969 7.785156 C 22.488281 7.785156 21.734375 7.03125 21.734375 6.101562 C 21.734375 5.171875 22.488281 4.417969 23.417969 4.417969 Z M 23.417969 4.417969 " fill-opacity="1" fill-rule="evenodd"/></g></svg>