<svg xmlns="http://www.w3.org/2000/svg" xmlns:xlink="http://www.w3.org/1999/xlink" width="40" zoomAndPan="magnify" viewBox="0 0 30 30.000001" height="40" preserveAspectRatio="xMidYMid meet" version="1.0"><defs><clipPath id="abdb166e1c"><path d="M 0.484375 0 L 29.515625 0 L 29.515625 29.03125 L 0.484375 29.03125 Z M 0.484375 0 " clip-rule="nonzero"/></clipPath></defs><g clip-path="url(#abdb166e1c)"><path fill="#c29f17" d="M 5.636719 0 L 24.347656 0 C 25.773438 0 27.066406 0.578125 28.003906 1.515625 C 28.9375 2.449219 29.515625 3.742188 29.515625 5.152344 L 29.515625 23.863281 C 29.515625 25.289062 28.9375 26.582031 28.003906 27.519531 C 27.066406 28.453125 25.773438 29.03125 24.347656 29.03125 L 5.636719 29.03125 C 4.226562 29.03125 2.933594 28.453125 1.996094 27.519531 C 1.0625 26.582031 0.484375 25.289062 0.484375 23.863281 L 0.484375 5.152344 C 0.484375 3.742188 1.0625 2.449219 1.996094 1.515625 C 2.933594 0.578125 4.226562 0 5.636719 0 Z M 24.347656 1.515625 L 5.636719 1.515625 C 4.632812 1.515625 3.730469 1.921875 3.070312 2.585938 C 2.40625 3.25 1.996094 4.148438 1.996094 5.152344 L 1.996094 23.863281 C 1.996094 24.867188 2.40625 25.785156 3.070312 26.445312 C 3.730469 27.09375 4.632812 27.519531 5.636719 27.519531 L 24.347656 27.519531 C 25.347656 27.519531 26.269531 27.09375 26.929688 26.445312 C 27.578125 25.785156 28.003906 24.867188 28.003906 23.863281 L 28.003906 5.152344 C 28.003906 4.148438 27.578125 3.25 26.929688 2.585938 C 26.269531 1.921875 25.347656 1.515625 24.347656 1.515625 Z M 24.347656 1.515625 " fill-opacity="1" fill-rule="nonzero"/></g><path fill="#c29f17" d="M 5.789062 10.070312 L 8.597656 10.070312 C 8.917969 10.070312 9.207031 10.1875 9.414062 10.390625 C 9.632812 10.597656 9.789062 10.886719 9.789062 11.226562 L 9.789062 24.234375 C 9.789062 24.558594 9.632812 24.867188 9.414062 25.070312 C 9.207031 25.273438 8.917969 25.394531 8.597656 25.394531 L 5.789062 25.394531 C 5.46875 25.394531 5.179688 25.273438 4.972656 25.070312 C 4.734375 24.867188 4.601562 24.558594 4.601562 24.234375 L 4.601562 11.226562 C 4.601562 10.886719 4.734375 10.597656 4.972656 10.390625 C 5.179688 10.1875 5.46875 10.070312 5.789062 10.070312 Z M 8.273438 11.582031 L 6.113281 11.582031 L 6.113281 23.878906 L 8.273438 23.878906 Z M 8.273438 11.582031 " fill-opacity="1" fill-rule="nonzero"/><path fill="#c29f17" d="M 12.882812 10.035156 L 15.6875 10.035156 C 16.011719 10.035156 16.300781 10.171875 16.503906 10.359375 C 16.742188 10.578125 16.878906 10.867188 16.878906 11.191406 L 16.878906 11.292969 C 17.492188 10.886719 18.1875 10.578125 18.902344 10.410156 C 19.890625 10.171875 20.925781 10.152344 21.878906 10.375 C 22.847656 10.613281 23.75 11.125 24.378906 11.921875 C 25.007812 12.6875 25.382812 13.726562 25.382812 15.019531 L 25.382812 24.203125 C 25.382812 24.523438 25.246094 24.8125 25.027344 25.035156 C 24.820312 25.222656 24.53125 25.359375 24.210938 25.359375 L 21.386719 25.359375 C 21.082031 25.359375 20.792969 25.222656 20.570312 25.035156 C 20.347656 24.8125 20.210938 24.523438 20.210938 24.203125 L 20.210938 16.941406 C 20.210938 16.257812 19.820312 15.835938 19.328125 15.648438 C 19.105469 15.5625 18.851562 15.527344 18.613281 15.527344 C 18.359375 15.527344 18.105469 15.578125 17.867188 15.664062 C 17.304688 15.867188 16.878906 16.292969 16.878906 16.941406 L 16.878906 24.234375 C 16.878906 24.558594 16.742188 24.867188 16.503906 25.070312 C 16.300781 25.273438 16.011719 25.394531 15.6875 25.394531 L 12.882812 25.394531 C 12.558594 25.394531 12.269531 25.273438 12.066406 25.070312 C 11.84375 24.867188 11.691406 24.558594 11.691406 24.234375 L 11.691406 11.191406 C 11.691406 10.867188 11.84375 10.578125 12.066406 10.359375 C 12.269531 10.171875 12.558594 10.035156 12.882812 10.035156 Z M 15.367188 11.546875 L 13.207031 11.546875 L 13.207031 23.878906 L 15.367188 23.878906 L 15.367188 16.941406 C 15.367188 15.5625 16.234375 14.644531 17.355469 14.234375 C 17.746094 14.097656 18.171875 14.03125 18.597656 14.015625 C 19.023438 14.015625 19.449219 14.082031 19.855469 14.234375 C 20.910156 14.625 21.726562 15.511719 21.726562 16.941406 L 21.726562 23.84375 L 23.871094 23.84375 L 23.871094 15.019531 C 23.871094 14.097656 23.613281 13.386719 23.207031 12.875 C 22.78125 12.347656 22.1875 12.007812 21.523438 11.835938 C 20.808594 11.667969 20.027344 11.683594 19.277344 11.871094 C 18.257812 12.125 17.339844 12.671875 16.742188 13.488281 C 16.605469 13.691406 16.386719 13.808594 16.113281 13.808594 C 15.707031 13.808594 15.367188 13.46875 15.367188 13.0625 Z M 15.367188 11.546875 " fill-opacity="1" fill-rule="nonzero"/><path fill="#c29f17" d="M 7.183594 3.621094 C 7.949219 3.621094 8.648438 3.945312 9.140625 4.4375 C 9.632812 4.933594 9.941406 5.628906 9.941406 6.378906 C 9.941406 7.144531 9.632812 7.824219 9.140625 8.332031 C 8.648438 8.828125 7.949219 9.132812 7.183594 9.132812 C 6.4375 9.132812 5.738281 8.828125 5.246094 8.332031 C 4.753906 7.824219 4.445312 7.144531 4.445312 6.378906 C 4.445312 5.628906 4.753906 4.933594 5.246094 4.4375 C 5.738281 3.945312 6.4375 3.621094 7.183594 3.621094 Z M 8.070312 5.511719 C 7.847656 5.289062 7.542969 5.152344 7.183594 5.152344 C 6.84375 5.152344 6.539062 5.289062 6.316406 5.511719 C 6.097656 5.730469 5.960938 6.039062 5.960938 6.378906 C 5.960938 6.71875 6.097656 7.042969 6.316406 7.261719 C 6.539062 7.484375 6.84375 7.621094 7.183594 7.621094 C 7.542969 7.621094 7.847656 7.484375 8.070312 7.261719 C 8.289062 7.042969 8.425781 6.71875 8.425781 6.378906 C 8.425781 6.039062 8.289062 5.730469 8.070312 5.511719 Z M 8.070312 5.511719 " fill-opacity="1" fill-rule="nonzero"/></svg>