<svg xmlns="http://www.w3.org/2000/svg" xmlns:xlink="http://www.w3.org/1999/xlink" width="40" zoomAndPan="magnify" viewBox="0 0 30 30.000001" height="40" preserveAspectRatio="xMidYMid meet" version="1.0"><defs><clipPath id="508c4884a2"><path d="M 4.839844 0 L 20 0 L 20 29 L 4.839844 29 Z M 4.839844 0 " clip-rule="nonzero"/></clipPath><clipPath id="9ba1efefb5"><path d="M 7 0 L 22.257812 0 L 22.257812 29.03125 L 7 29.03125 Z M 7 0 " clip-rule="nonzero"/></clipPath><clipPath id="6cdc7ae003"><path d="M 6 0 L 22 0 L 22 29.03125 L 6 29.03125 Z M 6 0 " clip-rule="nonzero"/></clipPath></defs><g clip-path="url(#508c4884a2)"><path fill="#25f4ee" d="M 18.441406 21.472656 C 18.027344 21.890625 17.234375 22.183594 16.433594 22.183594 C 15.308594 22.183594 14.464844 21.222656 14.464844 19.839844 L 14.464844 11.597656 L 18.949219 11.597656 L 18.949219 5.945312 L 14.464844 5.945312 L 14.464844 0.00390625 L 7.6875 0.00390625 L 7.6875 5.945312 L 4.847656 5.945312 L 4.847656 11.597656 L 7.6875 11.597656 L 7.6875 21.136719 C 7.6875 25.199219 10.539062 28.085938 14.597656 28.085938 C 16.433594 28.085938 18.574219 27.246094 19.875 26.035156 Z M 18.441406 21.472656 " fill-opacity="1" fill-rule="nonzero"/></g><g clip-path="url(#9ba1efefb5)"><path fill="#fe2c55" d="M 21.054688 22.429688 C 20.636719 22.851562 19.847656 23.144531 19.042969 23.144531 C 17.917969 23.144531 17.074219 22.179688 17.074219 20.800781 L 17.074219 12.554688 L 21.5625 12.554688 L 21.5625 6.90625 L 17.074219 6.90625 L 17.074219 0.964844 L 10.300781 0.964844 L 10.300781 6.90625 L 7.460938 6.90625 L 7.460938 12.554688 L 10.300781 12.554688 L 10.300781 22.097656 C 10.300781 26.15625 13.152344 29.042969 17.210938 29.042969 C 19.042969 29.042969 21.1875 28.207031 22.484375 26.992188 Z M 21.054688 22.429688 " fill-opacity="1" fill-rule="nonzero"/></g><g clip-path="url(#6cdc7ae003)"><path fill="#c29f17" d="M 19.714844 22.429688 C 19.296875 22.851562 18.507812 23.144531 17.703125 23.144531 C 16.582031 23.144531 15.738281 22.179688 15.738281 20.800781 L 15.738281 12.554688 L 20.222656 12.554688 L 20.222656 6.90625 L 15.738281 6.90625 L 15.738281 0.964844 L 8.960938 0.964844 L 8.960938 6.90625 L 6.121094 6.90625 L 6.121094 12.554688 L 8.960938 12.554688 L 8.960938 22.097656 C 8.960938 26.15625 11.8125 29.042969 15.871094 29.042969 C 17.703125 29.042969 19.847656 28.207031 21.148438 26.992188 Z M 19.714844 22.429688 " fill-opacity="1" fill-rule="nonzero"/></g></svg>