<svg xmlns="http://www.w3.org/2000/svg" xmlns:xlink="http://www.w3.org/1999/xlink" width="40" zoomAndPan="magnify" viewBox="0 0 30 30.000001" height="40" preserveAspectRatio="xMidYMid meet" version="1.0"><defs><clipPath id="ba1e65c0d9"><path d="M 0.484375 0 L 29.515625 0 L 29.515625 29 L 0.484375 29 Z M 0.484375 0 " clip-rule="nonzero"/></clipPath></defs><g clip-path="url(#ba1e65c0d9)"><path fill="#c29f17" d="M 14.949219 0.0273438 C 6.910156 0.0546875 0.484375 6.59375 0.589844 14.632812 C 0.609375 16.261719 0.898438 17.84375 1.453125 19.375 C 2.011719 20.90625 2.808594 22.304688 3.84375 23.5625 C 4.007812 23.765625 4.101562 24 4.125 24.261719 C 4.148438 24.519531 4.09375 24.765625 3.96875 24.996094 L 2.726562 27.21875 C 2.382812 27.835938 2.941406 28.566406 3.628906 28.390625 L 7.832031 27.320312 C 8.136719 27.242188 8.425781 27.273438 8.707031 27.410156 C 10.589844 28.324219 12.578125 28.804688 14.667969 28.847656 C 22.75 29.03125 29.386719 22.570312 29.410156 14.484375 C 29.4375 6.488281 22.949219 0 14.949219 0.0273438 Z M 15 27.078125 C 14.171875 27.078125 13.347656 26.996094 12.535156 26.832031 C 11.722656 26.671875 10.929688 26.433594 10.164062 26.113281 C 9.398438 25.796875 8.667969 25.40625 7.980469 24.945312 C 7.289062 24.484375 6.652344 23.960938 6.0625 23.375 C 5.476562 22.789062 4.953125 22.148438 4.492188 21.460938 C 4.03125 20.769531 3.644531 20.042969 3.324219 19.277344 C 3.007812 18.507812 2.769531 17.71875 2.605469 16.90625 C 2.445312 16.089844 2.363281 15.269531 2.363281 14.441406 C 2.363281 7.460938 8.019531 1.804688 15 1.804688 C 21.953125 1.804688 27.59375 7.417969 27.636719 14.359375 C 27.679688 21.324219 21.964844 27.078125 15 27.078125 Z M 15 27.078125 " fill-opacity="1" fill-rule="nonzero"/></g><path fill="#ffffff" d="M 27.636719 14.441406 C 27.636719 15.269531 27.554688 16.089844 27.394531 16.90625 C 27.230469 17.71875 26.992188 18.507812 26.675781 19.277344 C 26.355469 20.042969 25.96875 20.769531 25.507812 21.460938 C 25.046875 22.148438 24.523438 22.789062 23.933594 23.375 C 23.347656 23.960938 22.710938 24.484375 22.019531 24.945312 C 21.332031 25.40625 20.601562 25.796875 19.835938 26.113281 C 19.070312 26.433594 18.277344 26.671875 17.464844 26.832031 C 16.652344 26.996094 15.828125 27.078125 15 27.078125 C 14.171875 27.078125 13.347656 26.996094 12.535156 26.832031 C 11.722656 26.671875 10.929688 26.433594 10.164062 26.113281 C 9.398438 25.796875 8.667969 25.40625 7.980469 24.945312 C 7.289062 24.484375 6.652344 23.960938 6.0625 23.375 C 5.476562 22.789062 4.953125 22.148438 4.492188 21.460938 C 4.03125 20.769531 3.644531 20.042969 3.324219 19.277344 C 3.007812 18.507812 2.769531 17.71875 2.605469 16.90625 C 2.445312 16.089844 2.363281 15.269531 2.363281 14.441406 C 2.363281 13.609375 2.445312 12.789062 2.605469 11.976562 C 2.769531 11.160156 3.007812 10.371094 3.324219 9.605469 C 3.644531 8.835938 4.03125 8.109375 4.492188 7.417969 C 4.953125 6.730469 5.476562 6.089844 6.0625 5.503906 C 6.652344 4.917969 7.289062 4.394531 7.980469 3.933594 C 8.667969 3.472656 9.398438 3.082031 10.164062 2.765625 C 10.929688 2.449219 11.722656 2.207031 12.535156 2.046875 C 13.347656 1.882812 14.171875 1.804688 15 1.804688 C 15.828125 1.804688 16.652344 1.882812 17.464844 2.046875 C 18.277344 2.207031 19.070312 2.449219 19.835938 2.765625 C 20.601562 3.082031 21.332031 3.472656 22.019531 3.933594 C 22.710938 4.394531 23.347656 4.917969 23.933594 5.503906 C 24.523438 6.089844 25.046875 6.730469 25.507812 7.417969 C 25.96875 8.109375 26.355469 8.835938 26.675781 9.605469 C 26.992188 10.371094 27.230469 11.160156 27.394531 11.976562 C 27.554688 12.789062 27.636719 13.609375 27.636719 14.441406 Z M 27.636719 14.441406 " fill-opacity="1" fill-rule="nonzero"/><path fill="#c29f17" d="M 12.742188 8.296875 L 12.746094 8.308594 L 13.5 9.804688 C 13.667969 10.136719 13.71875 10.484375 13.652344 10.851562 C 13.589844 11.21875 13.417969 11.527344 13.148438 11.78125 C 12.875 12.03125 12.707031 12.339844 12.640625 12.703125 C 12.574219 13.070312 12.621094 13.417969 12.785156 13.75 C 13.238281 14.65625 14.023438 15.910156 15.21875 16.8125 C 15.492188 17.019531 15.800781 17.132812 16.144531 17.152344 C 16.492188 17.167969 16.808594 17.089844 17.105469 16.910156 L 17.589844 16.617188 C 18.054688 16.332031 18.542969 16.285156 19.054688 16.480469 L 20.984375 17.214844 C 21.191406 17.292969 21.375 17.410156 21.535156 17.5625 C 21.699219 17.714844 21.824219 17.890625 21.914062 18.09375 C 22.007812 18.296875 22.054688 18.507812 22.0625 18.730469 C 22.066406 18.953125 22.03125 19.167969 21.953125 19.375 C 21.929688 19.433594 21.90625 19.488281 21.875 19.546875 L 21.339844 20.582031 C 21.160156 20.929688 20.894531 21.183594 20.535156 21.34375 C 20.179688 21.503906 19.808594 21.53125 19.433594 21.433594 C 16.402344 20.652344 9.179688 17.925781 8.597656 9.6875 C 8.574219 9.351562 8.644531 9.039062 8.808594 8.746094 C 8.972656 8.453125 9.203125 8.230469 9.503906 8.078125 L 10.488281 7.574219 C 10.683594 7.472656 10.894531 7.410156 11.113281 7.394531 C 11.335938 7.375 11.550781 7.398438 11.765625 7.46875 C 11.976562 7.535156 12.164062 7.640625 12.335938 7.785156 C 12.503906 7.929688 12.640625 8.097656 12.742188 8.296875 Z M 12.742188 8.296875 " fill-opacity="1" fill-rule="nonzero"/></svg>